<svg width="400" height="58" viewBox="0 0 400 58" fill="none" xmlns="http://www.w3.org/2000/svg">
<path d="M13.4096 48.2393C9.14761 48.2393 5.92515 46.6765 3.5343 43.655C1.14345 40.6335 0 36.2576 0 30.7356C0 25.2136 1.2474 20.8377 3.63825 17.8162C6.0291 14.6906 9.35551 13.2319 13.6175 13.2319C18.0873 13.2319 21.4137 14.899 23.8046 18.1288H24.2204C23.9085 15.7325 23.7006 13.7529 23.7006 12.3984V0H30.8732V47.6142H25.2599L24.0125 43.1341H23.7006C21.2058 46.5723 17.8794 48.2393 13.4096 48.2393ZM15.2807 42.4048C18.1913 42.4048 20.3742 41.5712 21.7256 39.9042C23.0769 38.2372 23.8046 35.5283 23.8046 31.7775V30.7356C23.8046 26.4639 23.0769 23.4424 21.7256 21.6712C20.3742 19.9 18.1913 18.9623 15.1767 18.9623C12.6819 18.9623 10.7069 20.0042 9.35551 22.088C8.00416 24.1717 7.2765 27.089 7.2765 30.8398C7.2765 34.5906 7.90021 37.5079 9.25156 39.3833C10.7069 41.4671 12.6819 42.4048 15.2807 42.4048Z" fill="white"/>
<path d="M52.5987 48.2395C47.2972 48.2395 43.2432 46.6767 40.2286 43.6552C37.2141 40.6337 35.7588 36.362 35.7588 30.9442C35.7588 25.4222 37.1101 21.0463 39.9168 17.9206C42.6195 14.7949 46.4656 13.1279 51.2473 13.1279C55.7172 13.1279 59.2515 14.4824 61.8503 17.1913C64.449 19.9002 65.6964 23.651 65.6964 28.4437V32.2986H43.2432C43.3471 35.6327 44.1787 38.1332 45.9459 39.9044C47.6091 41.6756 49.9999 42.5091 53.0145 42.5091C54.9896 42.5091 56.8607 42.3007 58.6278 41.9882C60.395 41.5714 62.1621 40.9463 64.1372 40.1128V45.9473C62.37 46.7808 60.6029 47.406 58.8357 47.7185C56.9646 48.0311 54.8856 48.2395 52.5987 48.2395ZM51.2473 18.6499C48.9604 18.6499 47.0893 19.3792 45.738 20.8379C44.3866 22.2965 43.555 24.3803 43.2432 27.1934H58.5239C58.5239 24.3803 57.7962 22.2965 56.5488 20.8379C55.3014 19.3792 53.5343 18.6499 51.2473 18.6499Z" fill="white"/>
<path d="M78.4826 47.614L65.5928 13.7527H73.1811L80.0418 33.4443C81.1853 36.7784 81.9129 39.3831 82.2248 41.4668H82.4327C82.6406 40.0082 83.3682 37.2993 84.6156 33.4443L91.4764 13.7527H99.0647L86.1749 47.614H78.4826Z" fill="white"/>
<path d="M120.998 48.4476C120.998 50.5313 121.621 52.0942 122.765 53.1361C124.012 54.1779 125.987 54.6989 128.898 54.8031V57.6162C124.948 57.6162 122.141 56.8868 120.374 55.324C118.711 53.7612 117.879 51.469 117.879 48.2392V37.9245C117.879 33.757 115.488 31.569 110.811 31.569V29.0685C113.305 29.0685 115.073 28.5476 116.216 27.5057C117.359 26.4638 117.879 25.0052 117.879 23.0256V12.19C117.879 6.04283 121.517 3.02137 128.898 2.81299V5.52189C126.091 5.62608 124.012 6.25121 122.765 7.2931C121.517 8.33498 120.894 10.002 120.894 12.0858V21.4627C120.894 24.0675 120.478 26.047 119.542 27.4015C118.607 28.7559 117.152 29.5894 115.176 30.0062V30.2146C117.152 30.6313 118.607 31.4648 119.542 32.8193C120.478 34.0696 120.894 36.0491 120.894 38.5497V48.4476H120.998Z" fill="white"/>
<path d="M146.986 48.2391C142.204 48.2391 138.358 46.7805 135.655 43.759C132.952 40.7375 131.601 36.57 131.601 31.2564C131.601 25.9427 132.952 21.671 135.551 18.5454C138.15 15.3155 141.684 13.7527 146.05 13.7527C150 13.7527 153.015 15.1071 155.302 17.816C157.589 20.5249 158.732 24.2757 158.732 28.9642V31.4647H134.824C134.824 36.049 135.967 39.4873 138.046 41.8836C140.125 44.2799 143.14 45.5302 146.986 45.5302C148.857 45.5302 150.52 45.426 151.975 45.1134C153.431 44.8009 155.198 44.2799 157.381 43.4464V46.1553C155.51 46.9888 153.742 47.5098 152.183 47.8223C150.728 48.1349 148.961 48.2391 146.986 48.2391ZM146.154 16.3574C142.932 16.3574 140.437 17.3993 138.462 19.4831C136.487 21.5668 135.447 24.6925 135.031 28.6517H155.51C155.51 24.7967 154.678 21.7752 153.015 19.5872C151.352 17.3993 149.065 16.3574 146.154 16.3574Z" fill="white"/>
<path d="M176.923 13.7529C179.314 13.7529 181.393 14.1696 183.16 15.1073C184.928 15.9409 186.487 17.5037 187.838 19.5875H188.046C187.942 16.9827 187.838 14.4822 187.838 11.9817V0H190.853V47.6142H188.878L188.15 42.5089H187.942C185.447 46.2597 181.809 48.2393 177.027 48.2393C172.454 48.2393 168.919 46.7807 166.528 43.9676C164.138 41.1545 162.89 36.9869 162.89 31.465C162.89 25.7346 164.138 21.3587 166.528 18.233C168.919 15.2115 172.35 13.7529 176.923 13.7529ZM176.923 16.4618C173.285 16.4618 170.582 17.7121 168.711 20.3168C166.84 22.8173 166.009 26.5681 166.009 31.465C166.009 40.8419 169.647 45.6346 176.923 45.6346C180.666 45.6346 183.368 44.5927 185.135 42.4048C186.903 40.2168 187.734 36.5702 187.734 31.5691V31.0482C187.734 25.943 186.903 22.1922 185.135 20.0042C183.576 17.6079 180.77 16.4618 176.923 16.4618Z" fill="white"/>
<path d="M201.559 14.3779V35.945C201.559 39.279 202.287 41.6753 203.638 43.2382C205.093 44.801 207.172 45.5303 210.187 45.5303C214.137 45.5303 217.048 44.4884 218.919 42.5089C220.79 40.5293 221.725 37.2994 221.725 32.7151V14.3779H224.74V47.6141H222.141L221.621 43.0298H221.413C219.23 46.468 215.384 48.2392 209.875 48.2392C202.287 48.2392 198.544 44.1759 198.544 36.0492V14.3779H201.559Z" fill="white"/>
<path d="M245.946 48.2391C241.165 48.2391 237.526 46.7805 234.824 43.759C232.121 40.7375 230.77 36.57 230.77 31.2564C230.77 25.7344 232.121 21.4626 234.928 18.337C237.734 15.3155 241.58 13.7527 246.362 13.7527C249.273 13.7527 251.975 14.2736 254.574 15.2113L253.742 17.9202C250.832 16.9825 248.337 16.4616 246.258 16.4616C242.204 16.4616 239.086 17.7119 237.007 20.2124C234.928 22.7129 233.888 26.3595 233.888 31.048C233.888 35.5281 234.928 39.0705 237.007 41.571C239.086 44.0716 241.996 45.426 245.842 45.426C248.857 45.426 251.663 44.9051 254.262 43.759V46.5721C252.183 47.7182 249.377 48.2391 245.946 48.2391Z" fill="white"/>
<path d="M279.418 47.614L278.69 42.3003H278.482C276.819 44.4883 275.052 45.9469 273.389 46.8846C271.622 47.8223 269.543 48.2391 267.152 48.2391C263.929 48.2391 261.331 47.4056 259.564 45.7386C257.796 44.0716 256.861 41.7794 256.861 38.7579C256.861 35.5281 258.212 33.0276 260.915 31.1522C263.618 29.381 267.568 28.4433 272.661 28.3391L279.002 28.1307V25.9427C279.002 22.8171 278.378 20.4208 277.027 18.7537C275.78 17.1909 273.701 16.3574 270.79 16.3574C267.672 16.3574 264.553 17.1909 261.227 18.9621L260.083 16.3574C263.722 14.6904 267.36 13.7527 270.894 13.7527C274.532 13.7527 277.235 14.6904 279.106 16.5658C280.873 18.4412 281.809 21.4626 281.809 25.4218V47.5098H279.418V47.614ZM267.152 45.5302C270.686 45.5302 273.493 44.4883 275.572 42.5087C277.651 40.5291 278.69 37.6119 278.69 34.0695V30.8396L272.869 31.048C268.191 31.2564 264.865 31.9857 262.89 33.2359C260.915 34.4862 259.875 36.3616 259.875 38.9663C259.875 41.0501 260.499 42.7171 261.746 43.8632C263.098 44.9051 264.865 45.5302 267.152 45.5302Z" fill="white"/>
<path d="M298.025 45.5304C299.896 45.5304 301.559 45.322 303.014 45.0094V47.4058C301.559 47.9267 299.896 48.1351 297.921 48.1351C295.01 48.1351 292.827 47.3016 291.476 45.7388C290.125 44.1759 289.397 41.6754 289.397 38.3414V16.9827H284.511V15.2115L289.397 13.857L290.956 6.35547H292.515V14.378H302.287V16.9827H292.515V38.0288C292.515 40.5293 292.931 42.5089 293.867 43.655C294.698 44.9052 296.154 45.5304 298.025 45.5304Z" fill="white"/>
<path d="M306.652 5.10527C306.652 3.12569 307.276 2.18799 308.627 2.18799C309.251 2.18799 309.771 2.39637 310.083 2.91731C310.395 3.43825 310.602 4.16757 310.602 5.10527C310.602 6.04297 310.395 6.77229 310.083 7.29323C309.771 7.81417 309.251 8.12674 308.627 8.12674C307.276 8.12674 306.652 7.08485 306.652 5.10527ZM310.083 47.6142H307.068V14.3781H310.083V47.6142Z" fill="white"/>
<path d="M345.53 30.944C345.53 36.3618 344.179 40.6335 341.58 43.655C338.981 46.6765 335.343 48.2393 330.665 48.2393C327.755 48.2393 325.156 47.51 322.973 46.1555C320.79 44.6969 319.023 42.7173 317.879 40.1126C316.736 37.5079 316.112 34.4864 316.112 30.944C316.112 25.5262 317.464 21.2544 320.062 18.233C322.661 15.2115 326.299 13.6487 330.873 13.6487C335.447 13.6487 338.981 15.2115 341.58 18.233C344.283 21.3586 345.53 25.6304 345.53 30.944ZM319.335 30.944C319.335 35.5283 320.374 39.0707 322.349 41.6754C324.324 44.2801 327.235 45.5304 330.873 45.5304C334.511 45.5304 337.422 44.2801 339.397 41.6754C341.372 39.0707 342.412 35.5283 342.412 30.944C342.412 26.3597 341.372 22.8173 339.397 20.2126C337.422 17.712 334.511 16.4618 330.873 16.4618C327.235 16.4618 324.428 17.712 322.349 20.2126C320.374 22.8173 319.335 26.3597 319.335 30.944Z" fill="white"/>
<path d="M374.74 47.614V26.0469C374.74 22.7129 374.012 20.3166 372.661 18.7537C371.206 17.1909 369.127 16.4616 366.112 16.4616C362.162 16.4616 359.251 17.5035 357.38 19.4831C355.509 21.4626 354.574 24.7967 354.574 29.2768V47.614H351.559V14.3778H354.158L354.782 18.9621H354.989C357.172 15.5239 361.019 13.7527 366.528 13.7527C374.012 13.7527 377.858 17.816 377.858 25.9428V47.7182H374.74V47.614Z" fill="white"/>
<path d="M390.021 38.5497C390.021 36.0492 390.437 34.1738 391.372 32.8194C392.308 31.5691 393.763 30.6314 395.738 30.2146V30.0063C393.763 29.5895 392.308 28.756 391.372 27.4016C390.437 26.0471 390.021 24.0675 390.021 21.4628V12.0858C390.021 10.0021 389.397 8.43923 388.15 7.29316C386.902 6.25127 384.823 5.62614 382.017 5.52195V2.91724C385.551 2.91724 388.254 3.75075 390.125 5.31357C391.996 6.8764 392.931 9.16855 392.931 12.2942V22.9214C392.931 25.0052 393.451 26.4639 394.595 27.5057C395.738 28.4434 397.505 28.9644 400 29.0686V31.5691C395.322 31.6733 392.931 33.7571 392.931 37.9246V48.2393C392.931 51.3649 392.1 53.7613 390.437 55.3241C388.773 56.8869 385.967 57.6162 381.913 57.6162V54.8032C384.823 54.8032 386.798 54.178 388.046 53.2403C389.293 52.1984 389.917 50.6356 389.917 48.5518V38.5497H390.021Z" fill="white"/>
</svg>
