<svg width="400" height="58" fill="none" xmlns="http://www.w3.org/2000/svg"><path d="M13.41 48.24c-4.262 0-7.485-1.564-9.876-4.585C1.144 40.633 0 36.258 0 30.735c0-5.521 1.247-9.897 3.638-12.919 2.391-3.125 5.718-4.584 9.98-4.584 4.47 0 7.796 1.667 10.187 4.897h.415c-.311-2.397-.52-4.376-.52-5.73V0h7.173v47.614H25.26l-1.248-4.48h-.311c-2.495 3.438-5.822 5.105-10.291 5.105zm1.87-5.835c2.911 0 5.094-.834 6.446-2.5 1.35-1.668 2.079-4.377 2.079-8.128v-1.041c0-4.272-.728-7.294-2.08-9.065-1.35-1.771-3.534-2.709-6.548-2.709-2.495 0-4.47 1.042-5.821 3.126-1.352 2.084-2.08 5.001-2.08 8.752 0 3.75.624 6.668 1.976 8.543 1.455 2.084 3.43 3.022 6.029 3.022zM52.599 48.24c-5.302 0-9.356-1.563-12.37-4.585-3.015-3.021-4.47-7.293-4.47-12.71 0-5.523 1.351-9.899 4.158-13.024 2.703-3.126 6.549-4.793 11.33-4.793 4.47 0 8.005 1.354 10.603 4.063 2.599 2.71 3.846 6.46 3.846 11.253v3.855H43.243c.104 3.334.936 5.834 2.703 7.605 1.663 1.772 4.054 2.605 7.069 2.605 1.975 0 3.846-.208 5.613-.52 1.767-.418 3.534-1.043 5.51-1.876v5.834c-1.768.834-3.535 1.459-5.302 1.771-1.871.313-3.95.521-6.237.521zm-1.352-29.59c-2.287 0-4.158.73-5.509 2.188-1.351 1.459-2.183 3.542-2.495 6.355h15.28c0-2.813-.727-4.896-1.974-6.355-1.248-1.459-3.015-2.188-5.302-2.188zM78.483 47.614l-12.89-33.861h7.588l6.86 19.691c1.144 3.334 1.872 5.94 2.184 8.023h.208c.208-1.459.935-4.168 2.183-8.023l6.86-19.691h7.589l-12.89 33.861h-7.692zM120.998 48.448c0 2.083.623 3.646 1.767 4.688 1.247 1.042 3.222 1.563 6.133 1.667v2.813c-3.95 0-6.757-.73-8.524-2.292-1.663-1.563-2.495-3.855-2.495-7.085V37.925c0-4.168-2.391-6.356-7.068-6.356v-2.5c2.494 0 4.262-.521 5.405-1.563 1.143-1.042 1.663-2.5 1.663-4.48V12.19c0-6.147 3.638-9.169 11.019-9.377v2.709c-2.807.104-4.886.73-6.133 1.771-1.248 1.042-1.871 2.709-1.871 4.793v9.377c0 2.604-.416 4.584-1.352 5.938-.935 1.355-2.39 2.188-4.366 2.605v.209c1.976.416 3.431 1.25 4.366 2.604.936 1.25 1.352 3.23 1.352 5.73v9.899h.104zM146.986 48.24c-4.782 0-8.628-1.46-11.331-4.481-2.703-3.022-4.054-7.189-4.054-12.503 0-5.313 1.351-9.585 3.95-12.71 2.599-3.23 6.133-4.793 10.499-4.793 3.95 0 6.965 1.354 9.252 4.063 2.287 2.709 3.43 6.46 3.43 11.148v2.5h-23.908c0 4.585 1.143 8.023 3.222 10.42 2.079 2.396 5.094 3.646 8.94 3.646 1.871 0 3.534-.104 4.989-.417 1.456-.312 3.223-.833 5.406-1.667v2.71a24.759 24.759 0 0 1-5.198 1.666c-1.455.313-3.222.417-5.197.417zm-.832-31.883c-3.222 0-5.717 1.042-7.692 3.126-1.975 2.084-3.015 5.21-3.431 9.169h20.479c0-3.855-.832-6.877-2.495-9.065-1.663-2.188-3.95-3.23-6.861-3.23zM176.923 13.753c2.391 0 4.47.417 6.237 1.354 1.768.834 3.327 2.397 4.678 4.48h.208c-.104-2.604-.208-5.105-.208-7.605V0h3.015v47.614h-1.975l-.728-5.105h-.208c-2.495 3.75-6.133 5.73-10.915 5.73-4.573 0-8.108-1.458-10.499-4.271-2.39-2.814-3.638-6.981-3.638-12.503 0-5.73 1.248-10.106 3.638-13.232 2.391-3.022 5.822-4.48 10.395-4.48zm0 2.709c-3.638 0-6.341 1.25-8.212 3.855-1.871 2.5-2.702 6.251-2.702 11.148 0 9.377 3.638 14.17 10.914 14.17 3.743 0 6.445-1.042 8.212-3.23 1.768-2.188 2.599-5.835 2.599-10.836v-.52c0-5.106-.831-8.857-2.599-11.045-1.559-2.396-4.365-3.542-8.212-3.542zM201.559 14.378v21.567c0 3.334.728 5.73 2.079 7.293 1.455 1.563 3.534 2.292 6.549 2.292 3.95 0 6.861-1.042 8.732-3.021 1.871-1.98 2.806-5.21 2.806-9.794V14.378h3.015v33.236h-2.599l-.52-4.584h-.208c-2.183 3.438-6.029 5.21-11.538 5.21-7.588 0-11.331-4.064-11.331-12.19V14.377h3.015zM245.946 48.24c-4.781 0-8.42-1.46-11.122-4.481-2.703-3.022-4.054-7.189-4.054-12.503 0-5.522 1.351-9.793 4.158-12.919 2.806-3.021 6.652-4.584 11.434-4.584 2.911 0 5.613.52 8.212 1.458l-.832 2.71c-2.91-.938-5.405-1.46-7.484-1.46-4.054 0-7.172 1.25-9.251 3.751-2.079 2.5-3.119 6.148-3.119 10.836 0 4.48 1.04 8.023 3.119 10.523s4.989 3.855 8.835 3.855c3.015 0 5.821-.52 8.42-1.667v2.813c-2.079 1.146-4.885 1.667-8.316 1.667zM279.418 47.614l-.728-5.314h-.208c-1.663 2.188-3.43 3.647-5.093 4.585-1.767.937-3.846 1.354-6.237 1.354-3.223 0-5.821-.833-7.588-2.5-1.768-1.667-2.703-3.96-2.703-6.981 0-3.23 1.351-5.73 4.054-7.606 2.703-1.771 6.653-2.709 11.746-2.813l6.341-.208v-2.188c0-3.126-.624-5.522-1.975-7.19-1.247-1.562-3.326-2.396-6.237-2.396-3.118 0-6.237.834-9.563 2.605l-1.144-2.605c3.639-1.667 7.277-2.604 10.811-2.604 3.638 0 6.341.937 8.212 2.813 1.767 1.875 2.703 4.897 2.703 8.856V47.51h-2.391v.104zm-12.266-2.084c3.534 0 6.341-1.042 8.42-3.021 2.079-1.98 3.118-4.897 3.118-8.44v-3.23l-5.821.209c-4.678.208-8.004.938-9.979 2.188-1.975 1.25-3.015 3.126-3.015 5.73 0 2.084.624 3.751 1.871 4.897 1.352 1.042 3.119 1.667 5.406 1.667zM298.025 45.53c1.871 0 3.534-.208 4.989-.52v2.396c-1.455.52-3.118.73-5.093.73-2.911 0-5.094-.834-6.445-2.397-1.351-1.563-2.079-4.064-2.079-7.398V16.983h-4.886V15.21l4.886-1.354 1.559-7.502h1.559v8.023h9.772v2.605h-9.772v21.046c0 2.5.416 4.48 1.352 5.626.831 1.25 2.287 1.875 4.158 1.875zM306.652 5.105c0-1.98.624-2.917 1.975-2.917.624 0 1.144.208 1.456.73.312.52.519 1.25.519 2.187 0 .938-.207 1.667-.519 2.188a1.66 1.66 0 0 1-1.456.834c-1.351 0-1.975-1.042-1.975-3.022zm3.431 42.51h-3.015V14.377h3.015v33.236zM345.53 30.944c0 5.418-1.351 9.69-3.95 12.711-2.599 3.021-6.237 4.584-10.915 4.584-2.91 0-5.509-.729-7.692-2.083-2.183-1.46-3.95-3.439-5.094-6.043-1.143-2.605-1.767-5.627-1.767-9.169 0-5.418 1.352-9.69 3.95-12.711 2.599-3.022 6.237-4.584 10.811-4.584s8.108 1.563 10.707 4.584c2.703 3.126 3.95 7.397 3.95 12.711zm-26.195 0c0 4.584 1.039 8.127 3.014 10.731 1.975 2.605 4.886 3.855 8.524 3.855 3.638 0 6.549-1.25 8.524-3.855 1.975-2.604 3.015-6.147 3.015-10.731s-1.04-8.127-3.015-10.731c-1.975-2.501-4.886-3.751-8.524-3.751-3.638 0-6.445 1.25-8.524 3.75-1.975 2.605-3.014 6.148-3.014 10.732zM374.74 47.614V26.047c0-3.334-.728-5.73-2.079-7.293-1.455-1.563-3.534-2.292-6.549-2.292-3.95 0-6.861 1.041-8.732 3.021-1.871 1.98-2.806 5.314-2.806 9.794v18.337h-3.015V14.378h2.599l.624 4.584h.207c2.183-3.438 6.03-5.21 11.539-5.21 7.484 0 11.33 4.064 11.33 12.19v21.776h-3.118v-.104zM390.021 38.55c0-2.5.416-4.376 1.351-5.73.936-1.25 2.391-2.189 4.366-2.605v-.209c-1.975-.416-3.43-1.25-4.366-2.604-.935-1.355-1.351-3.335-1.351-5.94v-9.376c0-2.084-.624-3.647-1.871-4.793-1.248-1.042-3.327-1.667-6.133-1.771V2.917c3.534 0 6.237.834 8.108 2.397 1.871 1.562 2.806 3.855 2.806 6.98v10.627c0 2.084.52 3.543 1.664 4.585 1.143.937 2.91 1.458 5.405 1.563v2.5c-4.678.104-7.069 2.188-7.069 6.356v10.314c0 3.126-.831 5.522-2.494 7.085-1.664 1.563-4.47 2.292-8.524 2.292v-2.813c2.91 0 4.885-.625 6.133-1.563 1.247-1.042 1.871-2.604 1.871-4.688V38.55h.104z" fill="#fff"/></svg>