<?xml version="1.0" encoding="utf-8"?>
<!-- Generator: Adobe Illustrator 23.0.1, SVG Export Plug-In . SVG Version: 6.00 Build 0)  -->
<svg version="1.1" id="Слой_1" xmlns="http://www.w3.org/2000/svg" xmlns:xlink="http://www.w3.org/1999/xlink" x="0px" y="0px"
	 viewBox="0 0 1680 738" style="enable-background:new 0 0 1680 738;" xml:space="preserve">
<style type="text/css">
	.st0{fill:none;}
	.st1{fill:#A7A4A4;}
	.st2{font-family:'Roboto-Bold';}
	.st3{font-size:150px;}
	.st4{letter-spacing:3;}
	.st5{fill:#F2D1D9;}
	.st6{font-family:'Raleway-Bold';}
	.st7{font-size:180.0061px;}
	.st8{fill:#ACABAB;}
	.st9{font-family:'Raleway-Medium';}
	.st10{font-size:48px;}
	.st11{font-size:72px;}
	.st12{letter-spacing:2;}
	.st13{font-family:'Roboto-Medium';}
	.st14{font-size:60px;}
	.st15{letter-spacing:1;}
	.st16{font-size:90px;}
	.st17{font-size:120px;}
	.st18{fill:#F4E2E6;}
	.st19{fill:#E32C51;}
	.st20{font-size:100px;}
	.st21{font-size:140px;}
	.st22{letter-spacing:4;}
</style>
<rect x="47.2" y="19.9" class="st0" width="279.8" height="127.1"/>
<text transform="matrix(1 0 0 1 26.1641 127.3687)" class="st1 st2 st3 st4">JS6</text>
<text transform="matrix(-8.213958e-03 -1 1 -8.213958e-03 492.3273 735.9172)" class="st5 st6 st7">Electron</text>
<rect x="618.3" y="21.8" class="st0" width="304.7" height="116.2"/>
<text transform="matrix(1 0 0 1 618.3281 131.27)" class="st5 st6 st3">PHP</text>
<rect x="44" y="486.5" class="st0" width="0" height="2.4"/>
<polygon class="st0" points="774.8,639.3 772.4,639.3 772.4,639.3 774.8,639.3 "/>
<rect x="300" y="114.3" class="st0" width="47.8" height="191"/>
<text transform="matrix(4.489659e-11 -1 1 4.489659e-11 335.0397 305.311)" class="st8 st9 st10">Xamarin</text>
<rect x="184.1" y="241.3" class="st0" width="103.9" height="76.4"/>
<text transform="matrix(1 0 0 1 184.0998 295.2703)" class="st1 st2 st11 st12">C#</text>
<rect x="124.7" y="160.7" class="st0" width="169.5" height="57.3"/>
<text transform="matrix(1 0 0 1 124.7319 205.6865)" class="st1 st13 st14 st15">React</text>
<g>
	<rect x="117.3" y="192.3" class="st0" width="50.1" height="191"/>
	<text transform="matrix(4.489659e-11 -1 1 4.489659e-11 152.3824 383.3374)" class="st1 st6 st10">Python</text>
</g>
<rect x="301.9" y="560.5" class="st0" width="0" height="2.4"/>
<rect x="24.8" y="142" class="st0" width="76.4" height="273.3"/>
<text transform="matrix(4.489659e-11 -1 1 4.489659e-11 90.5232 415.2646)" class="st5 st6 st16">HTML</text>
<rect x="25.3" y="442.7" class="st0" width="171.1" height="64.5"/>
<text transform="matrix(1 0 0 1 25.3326 495.2482)" class="st8 st9 st11">Saas</text>
<rect x="179.1" y="332" class="st0" width="156.2" height="74"/>
<text transform="matrix(1 0 0 1 179.0998 384.5453)" class="st5 st6 st11">PHP</text>
<rect x="255.4" y="407.9" class="st0" width="93.1" height="267.7"/>
<text transform="matrix(4.489659e-11 -1 1 4.489659e-11 343.0414 675.5977)" class="st8 st6 st17">Java</text>
<rect x="18.7" y="517.6" class="st0" width="75.1" height="205.4"/>
<text transform="matrix(4.489659e-11 -1 1 4.489659e-11 84.4144 722.9971)" class="st18 st6 st16">Less</text>
<rect x="120.7" y="681" class="st0" width="164.8" height="47.3"/>
<text transform="matrix(1 0 0 1 120.7138 715.998)" class="st19 st6 st10">Redux</text>
<rect x="516.7" y="3.6" class="st0" width="75.1" height="205.4"/>
<text transform="matrix(4.489659e-11 -1 1 4.489659e-11 582.4144 208.9971)" class="st18 st6 st16">Less</text>
<rect x="519.7" y="258.5" class="st0" width="236.4" height="83.6"/>
<text transform="matrix(1 0 0 1 519.7148 333.521)" class="st1 st13 st20 st4">Java</text>
<rect x="597.3" y="386.7" class="st0" width="171.1" height="64.5"/>
<text transform="matrix(1 0 0 1 597.3326 439.2482)" class="st8 st9 st11">Saas</text>
<rect x="591.1" y="500.5" class="st0" width="346.3" height="86"/>
<text transform="matrix(1 0 0 1 591.1094 566.2461)" class="st18 st6 st16">NodeJS</text>
<rect x="686.3" y="627.2" class="st0" width="284.2" height="95.5"/>
<text transform="matrix(1 0 0 1 686.2567 714.7977)" class="st8 st6 st17">Java</text>
<rect x="520" y="678.4" class="st0" width="161.2" height="37.4"/>
<text transform="matrix(1 0 0 1 519.984 713.4132)" class="st18 st6 st10">Redux</text>
<rect x="517.9" y="372.1" class="st0" width="74" height="265.1"/>
<text transform="matrix(4.489659e-11 -1 1 4.489659e-11 583.6008 637.2002)" class="st19 st6 st16">HTML</text>
<rect x="836.9" y="139.1" class="st0" width="74" height="265.1"/>
<text transform="matrix(4.489659e-11 -1 1 4.489659e-11 902.6008 404.2002)" class="st19 st6 st16">HTML</text>
<rect x="828.1" y="422.3" class="st0" width="103.9" height="76.4"/>
<text transform="matrix(1 0 0 1 828.0998 476.2703)" class="st1 st2 st11 st12">C#</text>
<rect x="962.4" y="-2" class="st0" width="124.3" height="355.8"/>
<text transform="matrix(4.489659e-11 -1 1 4.489659e-11 1071.8973 353.8135)" class="st8 st6 st3">Saas</text>
<rect x="959.9" y="378.7" class="st0" width="123.4" height="351"/>
<text transform="matrix(4.489659e-11 -1 1 4.489659e-11 1069.3761 729.7256)" class="st18 st6 st3">Less</text>
<rect x="626.2" y="167.5" class="st0" width="174.3" height="49.7"/>
<text transform="matrix(1 0 0 1 626.1846 202.5545)" class="st18 st6 st10">Python</text>
<rect x="917" y="129.3" class="st0" width="62.7" height="140.9"/>
<text transform="matrix(4.489659e-11 -1 1 4.489659e-11 960.8009 270.2383)" class="st5 st6 st14">CS3</text>
<rect x="915.8" y="357" class="st0" width="177.9" height="55.2"/>
<text transform="matrix(1 0 0 1 915.7832 402.0137)" class="st1 st13 st14 st15">React</text>
<rect x="1090.1" y="19" class="st0" width="570.1" height="113.2"/>
<text transform="matrix(1 0 0 1 1090.0605 121.1995)" class="st5 st6 st21">Electron</text>
<polygon class="st0" points="1419.5,725.3 1417.1,725.3 1417.1,725.3 1419.5,725.3 "/>
<rect x="1100.1" y="152.4" class="st0" width="157.6" height="61.9"/>
<text transform="matrix(1 0 0 1 1100.0508 204.9341)" class="st18 st9 st11">Less</text>
<rect x="1099.4" y="246.4" class="st0" width="129" height="47.3"/>
<text transform="matrix(1 0 0 1 1099.3506 290.2183)" class="st1 st6 st14">PHP</text>
<rect x="1097.1" y="321.6" class="st0" width="241.2" height="118.6"/>
<text transform="matrix(1 0 0 1 1097.0664 409.1943)" class="st5 st6 st17">CS3</text>
<rect x="1094.5" y="400.6" class="st0" width="93.5" height="322.4"/>
<text transform="matrix(4.489659e-11 -1 1 4.489659e-11 1160.1665 722.9912)" class="st19 st6 st16">Python</text>
<rect x="1191.6" y="457.7" class="st0" width="171.9" height="64.8"/>
<text transform="matrix(1 0 0 1 1191.6465 502.7432)" class="st1 st13 st14 st15">React</text>
<polygon class="st0" points="1345.5,603.5 1347.9,603.5 1347.9,603.5 1345.5,603.5 "/>
<rect x="1190.8" y="541.4" class="st0" width="360.6" height="97.9"/>
<text transform="matrix(1 0 0 1 1190.8105 614.4277)" class="st18 st6 st20">Python</text>
<rect x="1352.1" y="588.2" class="st0" width="198.2" height="41"/>
<text transform="matrix(1 0 0 1 1352.0635 623.2715)" class="st8 st9 st10">Xamarin</text>
<rect x="1364.9" y="674.6" class="st0" width="174.3" height="61"/>
<text transform="matrix(1 0 0 1 1364.915 719.5596)" class="st1 st13 st14 st15">React</text>
<rect x="1537.6" y="370.8" class="st0" width="132.4" height="353.4"/>
<text transform="matrix(4.489659e-11 -1 1 4.489659e-11 1650.0724 724.2148)" class="st5 st2 st3 st22">Java</text>
<rect x="1432.2" y="297.9" class="st0" width="241.2" height="95.5"/>
<text transform="matrix(1 0 0 1 1432.167 372.9263)" class="st1 st13 st20 st4">Java</text>
<rect x="1591.2" y="113" class="st0" width="57.7" height="184.4"/>
<text transform="matrix(4.489659e-11 -1 1 4.489659e-11 1643.7676 297.4229)" class="st8 st9 st11">Saas</text>
<rect x="1363.2" y="233.9" class="st0" width="64.8" height="279.4"/>
<text transform="matrix(4.489659e-11 -1 1 4.489659e-11 1415.8042 513.3379)" class="st18 st6 st11">GoLang</text>
<rect x="1253.1" y="243.3" class="st0" width="103.9" height="76.4"/>
<text transform="matrix(1 0 0 1 1253.0999 297.2703)" class="st1 st2 st11 st12">C#</text>
<rect x="1275.8" y="167.5" class="st0" width="155.4" height="44.7"/>
<text transform="matrix(1 0 0 1 1275.7949 202.5498)" class="st19 st6 st10">Redux</text>
</svg>
