<svg version="1.1" id="Слой_1" xmlns="http://www.w3.org/2000/svg" x="0" y="0" viewBox="0 0 1680 738" xml:space="preserve"><style>.st0{fill:none}.st1{fill:#a7a4a4}.st2{font-family:&apos;Roboto-Bold&apos;}.st3{font-size:150px}.st4{letter-spacing:3}.st5{fill:#f2d1d9}.st6{font-family:&apos;Raleway-Bold&apos;}.st8{fill:#acabab}.st9{font-family:&apos;Raleway-Medium&apos;}.st10{font-size:48px}.st11{font-size:72px}.st12{letter-spacing:2}.st13{font-family:&apos;Roboto-Medium&apos;}.st14{font-size:60px}.st15{letter-spacing:1}.st16{font-size:90px}.st17{font-size:120px}.st18{fill:#f4e2e6}.st19{fill:#e32c51}.st20{font-size:100px}</style><path class="st0" d="M47.2 19.9H327V147H47.2z"/><text transform="translate(26.164 127.369)" class="st1 st2 st3 st4">JS6</text><text transform="matrix(-.00821 -1 1 -.00821 492.327 735.917)" class="st5 st6" font-size="180.006">Electron</text><path class="st0" d="M618.3 21.8H923V138H618.3z"/><text transform="translate(618.328 131.27)" class="st5 st6 st3">PHP</text><path class="st0" d="M774.8 639.3h-2.4 2.4zM300 114.3h47.8v191H300z"/><text transform="rotate(-90 320.175 -14.864)" class="st8 st9 st10">Xamarin</text><path class="st0" d="M184.1 241.3H288v76.4H184.1z"/><text transform="translate(184.1 295.27)" class="st1 st2 st11 st12">C#</text><path class="st0" d="M124.7 160.7h169.5V218H124.7z"/><text transform="translate(124.732 205.686)" class="st1 st13 st14 st15">React</text><path class="st0" d="M117.3 192.3h50.1v191h-50.1z"/><text transform="rotate(-90 267.86 115.477)" class="st1 st6 st10">Python</text><path class="st0" d="M24.8 142h76.4v273.3H24.8z"/><text transform="rotate(-90 252.894 162.37)" class="st5 st6 st16">HTML</text><path class="st0" d="M25.3 442.7h171.1v64.5H25.3z"/><text transform="translate(25.333 495.248)" class="st8 st9 st11">Saas</text><path class="st0" d="M179.1 332h156.2v74H179.1z"/><text transform="translate(179.1 384.545)" class="st5 st6 st11">PHP</text><path class="st0" d="M255.4 407.9h93.1v267.7h-93.1z"/><text transform="rotate(-90 509.32 166.278)" class="st8 st6 st17">Java</text><path class="st0" d="M18.7 517.6h75.1V723H18.7z"/><text transform="rotate(-90 403.706 319.291)" class="st18 st6 st16">Less</text><path class="st0" d="M120.7 681h164.8v47.3H120.7z"/><text transform="translate(120.714 715.998)" class="st19 st6 st10">Redux</text><path class="st0" d="M516.7 3.6h75.1V209h-75.1z"/><text transform="rotate(-90 395.706 -186.709)" class="st18 st6 st16">Less</text><path class="st0" d="M519.7 258.5h236.4v83.6H519.7z"/><text transform="translate(519.715 333.521)" class="st1 st13 st20 st4">Java</text><path class="st0" d="M597.3 386.7h171.1v64.5H597.3z"/><text transform="translate(597.333 439.248)" class="st8 st9 st11">Saas</text><path class="st0" d="M591.1 500.5h346.3v86H591.1z"/><text transform="translate(591.11 566.246)" class="st18 st6 st16">NodeJS</text><path class="st0" d="M686.3 627.2h284.2v95.5H686.3z"/><text transform="translate(686.257 714.798)" class="st8 st6 st17">Java</text><path class="st0" d="M520 678.4h161.2v37.4H520z"/><text transform="translate(519.984 713.413)" class="st18 st6 st10">Redux</text><path class="st0" d="M517.9 372.1h74v265.1h-74z"/><text transform="rotate(-90 610.4 26.8)" class="st19 st6 st16">HTML</text><path class="st0" d="M836.9 139.1h74v265.1h-74z"/><text transform="rotate(-90 653.4 -249.2)" class="st19 st6 st16">HTML</text><path class="st0" d="M828.1 422.3H932v76.4H828.1z"/><text transform="translate(828.1 476.27)" class="st1 st2 st11 st12">C#</text><path class="st0" d="M962.4-2h124.3v355.8H962.4z"/><text transform="rotate(-90 712.855 -359.042)" class="st8 st6 st3">Saas</text><path class="st0" d="M959.9 378.7h123.4v351H959.9z"/><text transform="rotate(-90 899.55 -169.825)" class="st18 st6 st3">Less</text><path class="st0" d="M626.2 167.5h174.3v49.7H626.2z"/><text transform="translate(626.185 202.554)" class="st18 st6 st10">Python</text><path class="st0" d="M917 129.3h62.7v140.9H917z"/><text transform="rotate(-90 615.52 -345.281)" class="st5 st6 st14">CS3</text><path class="st0" d="M915.8 357h177.9v55.2H915.8z"/><text transform="translate(915.783 402.014)" class="st1 st13 st14 st15">React</text><path class="st0" d="M1090.1 19h570.1v113.2h-570.1z"/><text transform="translate(1090.06 121.2)" class="st5 st6" font-size="140">Electron</text><path class="st0" d="M1419.5 725.3h-2.4 2.4zM1100.1 152.4h157.6v61.9h-157.6z"/><text transform="translate(1100.05 204.934)" class="st18 st9 st11">Less</text><path class="st0" d="M1099.4 246.4h129v47.3h-129z"/><text transform="translate(1099.35 290.218)" class="st1 st6 st14">PHP</text><path class="st0" d="M1097.1 321.6h241.2v118.6h-241.2z"/><text transform="translate(1097.066 409.194)" class="st5 st6 st17">CS3</text><path class="st0" d="M1094.5 400.6h93.5V723h-93.5z"/><text transform="rotate(-90 941.579 -218.588)" class="st19 st6 st16">Python</text><path class="st0" d="M1191.6 457.7h171.9v64.8h-171.9z"/><text transform="translate(1191.647 502.743)" class="st1 st13 st14 st15">React</text><path class="st0" d="M1345.5 603.5h2.4-2.4zM1190.8 541.4h360.6v97.9h-360.6z"/><text transform="translate(1190.81 614.428)" class="st18 st6 st20">Python</text><path class="st0" d="M1352.1 588.2h198.2v41h-198.2z"/><text transform="translate(1352.063 623.271)" class="st8 st9 st10">Xamarin</text><path class="st0" d="M1364.9 674.6h174.3v61h-174.3z"/><text transform="translate(1364.915 719.56)" class="st1 st13 st14 st15">React</text><path class="st0" d="M1537.6 370.8H1670v353.4h-132.4z"/><text transform="rotate(-90 1187.144 -462.929)" class="st5 st2 st3" letter-spacing="4">Java</text><path class="st0" d="M1432.2 297.9h241.2v95.5h-241.2z"/><text transform="translate(1432.167 372.926)" class="st1 st13 st20 st4">Java</text><path class="st0" d="M1591.2 113h57.7v184.4h-57.7z"/><text transform="rotate(-90 970.595 -673.172)" class="st8 st9 st11">Saas</text><path class="st0" d="M1363.2 233.9h64.8v279.4h-64.8z"/><text transform="rotate(-90 964.571 -451.233)" class="st18 st6 st11">GoLang</text><path class="st0" d="M1253.1 243.3H1357v76.4h-103.9z"/><text transform="translate(1253.1 297.27)" class="st1 st2 st11 st12">C#</text><path class="st0" d="M1275.8 167.5h155.4v44.7h-155.4z"/><text transform="translate(1275.795 202.55)" class="st19 st6 st10">Redux</text></svg>